<svg width="35" height="34" viewBox="0 0 35 34" fill="none" xmlns="http://www.w3.org/2000/svg">
<g clip-path="url(#clip0_2955_119)">
<path fill-rule="evenodd" clip-rule="evenodd" d="M17.4479 0C7.79964 0 0 7.79167 0 17.431C0 25.1363 4.9975 31.6586 11.9304 33.9671C12.7971 34.1406 13.1146 33.592 13.1146 33.1305C13.1146 32.7264 13.0861 31.3413 13.0861 29.898C8.2325 30.9372 7.22179 27.8201 7.22179 27.8201C6.44179 25.8 5.28607 25.2808 5.28607 25.2808C3.6975 24.213 5.40179 24.213 5.40179 24.213C7.16393 24.3284 8.08857 26.0022 8.08857 26.0022C9.64821 28.657 12.1614 27.9069 13.1725 27.4451C13.3168 26.3195 13.7793 25.5404 14.2704 25.1076C10.3993 24.7035 6.32643 23.2029 6.32643 16.5074C6.32643 14.6026 7.01929 13.0443 8.11714 11.8324C7.94393 11.3996 7.33714 9.60996 8.29071 7.21473C8.29071 7.21473 9.76393 6.7529 13.0857 9.00398C14.5079 8.62242 15.9746 8.42832 17.4479 8.42669C18.9211 8.42669 20.4229 8.62892 21.8096 9.00398C25.1318 6.7529 26.605 7.21473 26.605 7.21473C27.5586 9.60996 26.9514 11.3996 26.7782 11.8324C27.905 13.0443 28.5693 14.6026 28.5693 16.5074C28.5693 23.2029 24.4964 24.6744 20.5964 25.1076C21.2321 25.6558 21.7807 26.6946 21.7807 28.3397C21.7807 30.6772 21.7521 32.5532 21.7521 33.1302C21.7521 33.592 22.07 34.1406 22.9364 33.9674C29.8693 31.6583 34.8668 25.1363 34.8668 17.431C34.8954 7.79167 27.0671 0 17.4479 0Z" fill="#24292F"/>
</g>
<defs>
<clipPath id="clip0_2955_119">
<rect width="35" height="34" fill="white"/>
</clipPath>
</defs>
</svg>
