<svg width="36" height="36" viewBox="0 0 36 36" fill="none" xmlns="http://www.w3.org/2000/svg">
<path d="M31.5028 4.60964C30.6261 4.57124 29.7323 4.83324 28.9955 5.37746L27.0183 6.83715L18 13.5042L9.06612 6.90043C8.94162 6.77877 8.77726 6.70633 8.60347 6.69652H8.78347L7.00878 5.38308C6.27152 4.83752 5.37638 4.57404 4.49862 4.61246C3.62087 4.65088 2.76119 4.99061 2.09393 5.64886C1.24631 6.48455 0.720029 7.65344 0.720029 8.93527V11.4075C0.709535 11.4778 0.709535 11.5494 0.720029 11.6198V28.44C0.720029 29.8232 1.85677 30.96 3.24003 30.96H8.64003C8.83098 30.9599 9.0141 30.8841 9.14912 30.7491C9.28415 30.614 9.36001 30.4309 9.36003 30.24V18.2686L17.5725 24.3393C17.6963 24.4307 17.8462 24.48 18 24.48C18.1539 24.48 18.3037 24.4307 18.4275 24.3393L26.64 18.2686V30.24C26.6401 30.4309 26.7159 30.614 26.8509 30.7491C26.986 30.8841 27.1691 30.9599 27.36 30.96H32.76C34.1433 30.96 35.28 29.8232 35.28 28.44V11.6057C35.2882 11.5437 35.2882 11.4808 35.28 11.4187V8.93527C35.28 7.66918 34.7692 6.50572 33.9328 5.66855C33.9087 5.64438 33.9006 5.63769 33.9103 5.64746C33.9089 5.64605 33.9075 5.64464 33.9061 5.64324C33.239 4.98644 32.3796 4.64805 31.5028 4.60964ZM31.4241 6.04824C31.9686 6.06959 32.4965 6.27612 32.8964 6.6698C32.9101 6.68325 32.92 6.6934 32.9133 6.68668C33.4868 7.26071 33.84 8.05576 33.84 8.93527V11.1571L28.08 15.4139V7.91996C28.0803 7.89555 28.0794 7.87114 28.0772 7.84683L29.8505 6.53621H29.8519C30.3189 6.19122 30.8796 6.02689 31.4241 6.04824ZM4.57737 6.05246C5.12252 6.03112 5.68507 6.19463 6.15237 6.54043L7.92284 7.84965C7.92076 7.87302 7.91982 7.89649 7.92003 7.91996V15.4139L2.16003 11.1571V8.93527C2.16003 8.04558 2.52129 7.24953 3.10503 6.67402C3.50481 6.27963 4.03223 6.0738 4.57737 6.05246ZM26.64 8.90715V16.4784L18 22.8642L9.36003 16.4784V8.90855L17.5725 14.9793C17.6963 15.0707 17.8462 15.12 18 15.12C18.1539 15.12 18.3037 15.0707 18.4275 14.9793L26.64 8.90715ZM2.16003 12.9473L7.92003 17.2054V29.52H3.24003C2.63464 29.52 2.16003 29.0453 2.16003 28.44V12.9473ZM33.84 12.9473V28.44C33.84 29.0453 33.3654 29.52 32.76 29.52H28.08V17.2054L33.84 12.9473Z" fill="black"/>
</svg>
