<svg width="36" height="36" viewBox="0 0 36 36" fill="none" xmlns="http://www.w3.org/2000/svg">
<path d="M6.48 2.87988C4.50035 2.87988 2.88 4.50023 2.88 6.47988V29.5199C2.88 31.4995 4.50035 33.1199 6.48 33.1199H29.52C31.4997 33.1199 33.12 31.4995 33.12 29.5199V6.47988C33.12 4.50023 31.4997 2.87988 29.52 2.87988H6.48ZM6.48 4.31988H29.52C30.7213 4.31988 31.68 5.27857 31.68 6.47988V29.5199C31.68 30.7212 30.7213 31.6799 29.52 31.6799H6.48C5.2787 31.6799 4.32 30.7212 4.32 29.5199V6.47988C4.32 5.27857 5.2787 4.31988 6.48 4.31988ZM10.08 7.92832C9.29145 7.92832 8.58184 8.16402 8.05641 8.60613C7.53098 9.04825 7.20844 9.70873 7.20844 10.416C7.20844 11.7603 8.37453 12.8084 9.85782 12.9121L9.86063 12.9135C9.93131 12.9376 10.0053 12.9504 10.08 12.9514C11.7166 12.9514 12.9516 11.8051 12.9516 10.416C12.9514 10.4033 12.951 10.3906 12.9502 10.378C12.8769 9.00984 11.6571 7.92832 10.08 7.92832ZM10.08 9.35145C11.0824 9.35145 11.4782 9.79911 11.5214 10.4343C11.5127 11.0508 11.1313 11.5283 10.08 11.5283C9.08251 11.5283 8.63157 11.0175 8.63157 10.416C8.63157 10.1152 8.74131 9.88858 8.97188 9.69457C9.20245 9.50056 9.57256 9.35145 10.08 9.35145ZM7.92 13.6799C7.72905 13.6799 7.54593 13.7558 7.41091 13.8908C7.27589 14.0258 7.20002 14.2089 7.2 14.3999V28.0799C7.20002 28.2708 7.27589 28.454 7.41091 28.589C7.54593 28.724 7.72905 28.7999 7.92 28.7999H12.24C12.431 28.7999 12.6141 28.724 12.7491 28.589C12.8841 28.454 12.96 28.2708 12.96 28.0799V23.8569V14.3999C12.96 14.2089 12.8841 14.0258 12.7491 13.8908C12.6141 13.7558 12.431 13.6799 12.24 13.6799H7.92ZM14.4 13.6799C14.2091 13.6799 14.0259 13.7558 13.8909 13.8908C13.7559 14.0258 13.68 14.2089 13.68 14.3999V28.0799C13.68 28.2708 13.7559 28.454 13.8909 28.589C14.0259 28.724 14.2091 28.7999 14.4 28.7999H18.72C18.911 28.7999 19.0941 28.724 19.2291 28.589C19.3641 28.454 19.44 28.2708 19.44 28.0799V20.8799C19.44 20.2825 19.603 19.6883 19.89 19.2993C20.177 18.9102 20.5391 18.6767 21.2273 18.6889C21.9371 18.7011 22.3128 18.9443 22.597 19.326C22.8813 19.7077 23.04 20.2799 23.04 20.8799V28.0799C23.04 28.2708 23.1159 28.454 23.2509 28.589C23.3859 28.724 23.5691 28.7999 23.76 28.7999H28.08C28.271 28.7999 28.4541 28.724 28.5891 28.589C28.7241 28.454 28.8 28.2708 28.8 28.0799V20.3483C28.8 18.216 28.1684 16.527 27.0858 15.3843C26.0032 14.2415 24.4974 13.6799 22.905 13.6799C21.3916 13.6799 20.2398 14.1874 19.44 14.705V14.3999C19.44 14.2089 19.3641 14.0258 19.2291 13.8908C19.0941 13.7558 18.911 13.6799 18.72 13.6799H14.4ZM8.64 15.1199H11.52V23.8569V27.3599H8.64V15.1199ZM15.12 15.1199H18V16.2435C18 16.3945 18.0475 16.5416 18.1358 16.6641C18.224 16.7866 18.3485 16.8783 18.4917 16.9262C18.6349 16.974 18.7895 16.9757 18.9337 16.9309C19.0778 16.8861 19.2043 16.7972 19.2952 16.6766C19.2952 16.6766 20.4258 15.1199 22.905 15.1199C24.1674 15.1199 25.2499 15.5393 26.0409 16.3743C26.8319 17.2092 27.36 18.4954 27.36 20.3483V27.3599H24.48V20.8799C24.48 20.0399 24.2787 19.1714 23.753 18.4654C23.2272 17.7593 22.3429 17.2677 21.2527 17.2489C20.1568 17.2295 19.2582 17.7313 18.7313 18.4457C18.2043 19.16 18 20.0372 18 20.8799V27.3599H15.12V15.1199Z" fill="black"/>
</svg>
