<svg width="33" height="33" viewBox="0 0 33 33" fill="none" xmlns="http://www.w3.org/2000/svg">
<g clip-path="url(#clip0_2955_121)">
<path d="M16.4999 3C8.1298 3 1.31992 9.80988 1.31992 18.18C1.31992 20.7936 1.9951 23.3636 3.2755 25.6314L1.34434 32.5218C1.28098 32.7482 1.34236 32.9911 1.50604 33.1594C1.6321 33.2894 1.8037 33.36 1.97992 33.36C2.03272 33.36 2.08618 33.3534 2.13832 33.3409L9.32968 31.5595C11.5255 32.7383 13.9985 33.36 16.4999 33.36C24.87 33.36 31.6799 26.5501 31.6799 18.18C31.6799 9.80988 24.87 3 16.4999 3ZM24.1361 23.5366C23.8114 24.4355 22.2538 25.2559 21.5054 25.3661C20.8335 25.4644 19.9834 25.5067 19.0502 25.2136C18.4845 25.0354 17.7585 24.7991 16.8286 24.4025C12.9194 22.7353 10.3665 18.8486 10.1712 18.5918C9.97648 18.3351 8.57992 16.5056 8.57992 14.612C8.57992 12.7185 9.58642 11.7872 9.94414 11.4018C10.3019 11.0164 10.7236 10.92 10.9836 10.92C11.2437 10.92 11.5031 10.9233 11.7308 10.9339C11.9703 10.9457 12.2918 10.8434 12.6079 11.5945C12.9326 12.3654 13.7121 14.2589 13.8084 14.4523C13.9061 14.645 13.9708 14.8701 13.8414 15.1268C13.7121 15.3836 13.6474 15.544 13.452 15.769C13.2567 15.9941 13.0428 16.2706 12.8673 16.4435C12.6719 16.6356 12.4693 16.8435 12.6963 17.2289C12.9234 17.6144 13.7055 18.8743 14.8644 19.8947C16.3527 21.2054 17.6087 21.612 17.9981 21.8047C18.3875 21.9974 18.6152 21.9651 18.8423 21.7084C19.0693 21.451 19.8164 20.5844 20.0758 20.1996C20.3352 19.8148 20.5952 19.8782 20.9529 20.0069C21.3107 20.1349 23.2266 21.0655 23.616 21.2582C24.0054 21.451 24.2655 21.5473 24.3632 21.7077C24.4608 21.8674 24.4608 22.6383 24.1361 23.5366Z" fill="black"/>
</g>
<defs>
<clipPath id="clip0_2955_121">
<rect width="33" height="33" fill="white"/>
</clipPath>
</defs>
</svg>
