<svg width="71" height="71" viewBox="0 0 71 71" fill="none" xmlns="http://www.w3.org/2000/svg">
<g clip-path="url(#clip0_2938_302)">
<path d="M60 0.5H11C5.20101 0.5 0.5 5.20101 0.5 11V60C0.5 65.799 5.20101 70.5 11 70.5H60C65.799 70.5 70.5 65.799 70.5 60V11C70.5 5.20101 65.799 0.5 60 0.5Z" fill="#F7DF1E"/>
<path d="M44.7969 51.0859C46.1641 53.4102 48.0781 55.0508 51.2227 55.0508C53.957 55.0508 55.7344 53.6836 55.7344 51.7695C55.7344 49.582 53.957 48.7617 50.9492 47.3945L49.3086 46.7109C44.5234 44.6602 41.3789 42.1992 41.3789 36.8672C41.3789 31.9453 45.0703 28.1172 50.9492 28.1172C55.1875 28.1172 58.1953 29.6211 60.2461 33.4492L55.1875 36.7305C54.0938 34.6797 52.8633 33.8594 50.9492 33.8594C49.0352 33.8594 47.8047 35.0898 47.8047 36.7305C47.8047 38.6445 49.0352 39.4648 51.9062 40.6953L53.5469 41.3789C59.1523 43.8398 62.2969 46.1641 62.2969 51.7695C62.2969 57.6484 57.6484 60.9297 51.3594 60.9297C45.207 60.9297 41.2422 58.0586 39.3281 54.2305L44.7969 51.0859ZM21.5547 51.6328C22.6484 53.4102 23.4688 55.0508 25.793 55.0508C27.9805 55.0508 29.3477 54.2305 29.3477 50.9492V28.2539H35.9102V50.6758C35.9102 57.5117 31.9453 60.5195 26.0664 60.5195C20.7344 60.5195 17.7266 57.7852 16.2227 54.5039L21.5547 51.6328Z" fill="black"/>
</g>
<defs>
<clipPath id="clip0_2938_302">
<rect width="70" height="70" fill="white" transform="translate(0.5 0.5)"/>
</clipPath>
</defs>
</svg>
