<svg width="97" height="97" viewBox="0 0 97 97" fill="none" xmlns="http://www.w3.org/2000/svg">
<g clip-path="url(#clip0_2938_305)">
<path d="M51.6437 96.9739C51.8501 96.9549 52.507 96.8886 53.0982 96.8412C66.7334 95.5992 79.5053 88.1665 87.5944 76.7425C92.0988 70.3905 94.9798 63.1853 96.0683 55.5535C96.4531 52.8895 96.5 52.1026 96.5 48.4905C96.5 44.8784 96.4531 44.0915 96.0683 41.4275C93.4595 23.2154 80.6314 7.91386 63.2331 2.24451C60.1176 1.23009 56.8331 0.538017 53.0982 0.12088C51.6437 -0.0402908 45.3563 -0.0402908 43.9018 0.12088C37.4548 0.8414 31.9933 2.45309 26.6067 5.23088C25.7809 5.6575 25.6214 5.77127 25.734 5.86607C25.8091 5.92296 29.3281 10.6917 33.551 16.4558L41.2273 26.9318L50.846 41.3138C56.1387 49.2205 60.493 55.6862 60.5305 55.6862C60.568 55.6957 60.6056 49.3058 60.6243 41.5034C60.6525 27.8419 60.6619 27.2921 60.8308 26.9697C61.0748 26.5052 61.2625 26.3156 61.6566 26.107C61.9569 25.9553 62.2196 25.9269 63.6367 25.9269H65.2601L65.6918 26.2018C65.9733 26.3819 66.1798 26.6189 66.3205 26.8939L66.5176 27.3205L66.4988 46.3289L66.4707 65.3469L66.1798 65.7166C66.0296 65.9157 65.7106 66.1717 65.4853 66.2949C65.1006 66.4845 64.9504 66.5035 63.327 66.5035C61.4126 66.5035 61.0935 66.4277 60.5962 65.8778C60.4554 65.7261 55.2472 57.8004 49.0161 48.2535C42.785 38.7066 34.2642 25.6709 30.0789 19.2715L22.4777 7.63893L22.093 7.89491C18.6865 10.1323 15.083 13.3178 12.2302 16.6359C6.15865 23.68 2.24545 32.2693 0.931671 41.4275C0.546921 44.0915 0.5 44.8784 0.5 48.4905C0.5 52.1026 0.546921 52.8895 0.931671 55.5535C3.54047 73.7656 16.3686 89.0671 33.7669 94.7365C36.8355 95.7414 40.1012 96.4335 43.761 96.8507C44.6619 96.9455 50.8648 97.0497 51.6437 96.9739ZM31.9933 67.6412C31.5428 67.4136 31.1768 66.9775 31.0455 66.5225C30.9704 66.276 30.9516 61.0048 30.9704 49.1257L30.9985 32.0797L33.9733 36.6873L36.9575 41.2948V53.6858C36.9575 61.6969 36.9199 66.2001 36.8636 66.4182C36.7135 66.9491 36.385 67.3662 35.9346 67.6127C35.5499 67.8118 35.4091 67.8308 33.9358 67.8308C32.5469 67.8308 32.3029 67.8118 31.9933 67.6412Z" fill="black"/>
</g>
<defs>
<clipPath id="clip0_2938_305">
<rect width="96" height="97" fill="white" transform="matrix(-1 0 0 -1 96.5 97)"/>
</clipPath>
</defs>
</svg>
