<svg width="73" height="71" viewBox="0 0 73 71" fill="none" xmlns="http://www.w3.org/2000/svg">
<path d="M27.782 33.3161H42.5552C46.6637 33.3161 49.9421 29.9739 49.9421 25.909V12.0093C49.9421 8.05366 46.5668 5.09357 42.5552 4.42517C37.6032 3.62032 32.2224 3.66123 27.782 4.43862C21.5295 5.52997 20.3954 7.80807 20.3954 12.023V14.9979H35.1824V19.4297H14.8484C10.5466 19.4297 6.78373 21.9805 5.6081 26.823C4.25248 32.3748 4.19721 35.8395 5.6081 41.6368C6.65942 45.9474 9.1631 49.0299 13.4651 49.0299H18.5418V42.3736C18.5417 37.5585 22.7607 33.3161 27.782 33.3161Z" fill="#347AB4"/>
<path d="M67.2935 29.0339C66.2282 24.819 64.2088 21.6406 59.9068 21.6406H54.3602V28.1063C54.3602 33.1261 50.0441 37.3545 45.1197 37.3545H30.3463C26.307 37.3545 22.9596 40.765 22.9596 44.7615V58.6478C22.9596 62.6033 26.4454 64.9222 30.3463 66.0547C35.0217 67.405 39.5172 67.6507 45.1196 66.0547C48.8408 64.9904 52.5065 62.8492 52.5065 58.6478V55.7362H37.747V51.2408H59.9067C64.2088 51.2408 65.7995 48.2807 67.2933 43.8477C68.8427 39.2779 68.7737 34.8856 67.2935 29.0339Z" fill="#FFCA1D"/>
<path d="M26.8552 12.4239C25.3816 12.4239 24.1869 11.2326 24.1869 9.76638C24.2001 8.28703 25.3816 7.0957 26.8552 7.0957C28.3156 7.0957 29.5237 8.30007 29.5237 9.76638C29.5236 11.2326 28.3289 12.4239 26.8552 12.4239Z" fill="white"/>
<path d="M44.784 63.7994C43.3104 63.7994 42.1155 62.608 42.1155 61.1419C42.1288 59.6625 43.3102 58.4712 44.784 58.4712C46.2444 58.4712 47.4525 59.6756 47.4525 61.1419C47.4525 62.608 46.2577 63.7994 44.784 63.7994Z" fill="white"/>
</svg>
