<svg width="87" height="99" viewBox="0 0 87 99" fill="none" xmlns="http://www.w3.org/2000/svg">
<g clip-path="url(#clip0_2938_308)">
<path d="M86.5 49.5088C86.5 43.8114 79.3655 38.412 68.427 35.0636C70.9513 23.9142 69.8294 15.0438 64.8861 12.2038C63.7466 11.5377 62.4144 11.2221 60.9594 11.2221V15.1314C61.7658 15.1314 62.4144 15.2892 62.9578 15.5872C65.3418 16.9546 66.3761 22.1612 65.5697 28.8578C65.3769 30.5057 65.0613 32.2412 64.6757 34.0118C61.2399 33.1703 57.4886 32.5217 53.5444 32.101C51.1779 28.8578 48.7238 25.9127 46.2521 23.3357C51.9668 18.024 57.3308 15.1139 60.977 15.1139V11.2046C56.1563 11.2046 49.8457 14.6406 43.4649 20.601C37.0842 14.6756 30.7735 11.2747 25.9529 11.2747V15.184C29.5815 15.184 34.9631 18.0766 40.6777 23.3533C38.2236 25.9302 35.7695 28.8578 33.438 32.101C29.4764 32.5217 25.725 33.1703 22.2892 34.0293C21.8861 32.2763 21.5881 30.5758 21.3777 28.9455C20.5538 22.2488 21.5705 17.0423 23.937 15.6573C24.4629 15.3418 25.1466 15.2016 25.9529 15.2016V11.2922C24.4804 11.2922 23.1482 11.6078 21.9912 12.274C17.0654 15.1139 15.9611 23.9668 18.5029 35.0812C7.59947 38.447 0.5 43.8289 0.5 49.5088C0.5 55.2062 7.63453 60.6056 18.573 63.954C16.0487 75.1034 17.1706 83.9738 22.1139 86.8138C23.2534 87.4799 24.5856 87.7955 26.0581 87.7955C30.8787 87.7955 37.1894 84.3595 43.5701 78.3991C49.9509 84.3244 56.2615 87.7254 61.0821 87.7254C62.5546 87.7254 63.8869 87.4098 65.0438 86.7437C69.9696 83.9037 71.074 75.0508 68.5322 63.9364C79.4005 60.5881 86.5 55.1887 86.5 49.5088ZM63.6765 37.8159C63.0279 40.0774 62.2216 42.4089 61.31 44.7405C60.5913 43.3381 59.8375 41.9356 59.0137 40.5332C58.2073 39.1307 57.3484 37.7633 56.4894 36.431C58.9786 36.7992 61.3801 37.255 63.6765 37.8159ZM55.648 56.486C54.2807 58.8526 52.8783 61.0965 51.4234 63.1826C48.8115 63.4105 46.1645 63.5332 43.5 63.5332C40.853 63.5332 38.2061 63.4105 35.6117 63.2002C34.1567 61.114 32.7369 58.8876 31.3695 56.5386C30.0373 54.2421 28.8278 51.9105 27.7234 49.5614C28.8102 47.2123 30.0373 44.8632 31.352 42.5667C32.7193 40.2001 34.1217 37.9562 35.5766 35.8701C38.1885 35.6422 40.8355 35.5194 43.5 35.5194C46.147 35.5194 48.7939 35.6422 51.3883 35.8525C52.8433 37.9387 54.2631 40.165 55.6305 42.5141C56.9627 44.8106 58.1722 47.1422 59.2766 49.4913C58.1722 51.8404 56.9627 54.1895 55.648 56.486ZM61.31 54.207C62.2566 56.5561 63.063 58.9052 63.7291 61.1841C61.4327 61.7451 59.0137 62.2184 56.5069 62.5866C57.3659 61.2367 58.2248 59.8518 59.0312 58.4318C59.8376 57.0294 60.5913 55.6094 61.31 54.207ZM43.5351 72.9121C41.9048 71.2291 40.2746 69.3534 38.6618 67.3023C40.2395 67.3724 41.8522 67.425 43.4825 67.425C45.1302 67.425 46.7605 67.3899 48.3557 67.3023C46.778 69.3534 45.1478 71.2291 43.5351 72.9121ZM30.4931 62.5866C28.0039 62.2184 25.6023 61.7626 23.306 61.2017C23.9545 58.9402 24.7609 56.6087 25.6724 54.2771C26.3912 55.6796 27.1449 57.082 27.9688 58.4844C28.7927 59.8869 29.6341 61.2543 30.4931 62.5866ZM43.4474 26.1055C45.0777 27.7885 46.7079 29.6642 48.3206 31.7153C46.743 31.6452 45.1302 31.5926 43.5 31.5926C41.8522 31.5926 40.222 31.6277 38.6268 31.7153C40.2044 29.6642 41.8347 27.7885 43.4474 26.1055ZM30.4755 36.431C29.6166 37.7809 28.7576 39.1658 27.9513 40.5858C27.1449 41.9882 26.3912 43.3907 25.6724 44.7931C24.7258 42.444 23.9195 40.0949 23.2534 37.8159C25.5497 37.2725 27.9688 36.7992 30.4755 36.431ZM14.6113 58.3793C8.40583 55.7321 4.39156 52.2611 4.39156 49.5088C4.39156 46.7565 8.40583 43.2679 14.6113 40.6384C16.1188 39.9897 17.7666 39.4112 19.467 38.8678C20.4662 42.3038 21.7809 45.88 23.4111 49.5439C21.7984 53.1902 20.5012 56.7489 19.5196 60.1674C17.7841 59.6239 16.1364 59.0279 14.6113 58.3793ZM24.0422 83.4304C21.6582 82.063 20.6239 76.8564 21.4303 70.1598C21.6231 68.5119 21.9387 66.7764 22.3243 65.0058C25.7601 65.8473 29.5114 66.4959 33.4556 66.9166C35.8221 70.1598 38.2762 73.1049 40.7479 75.6819C35.0332 80.9936 29.6692 83.9037 26.023 83.9037C25.2342 83.8862 24.5681 83.7284 24.0422 83.4304ZM65.6223 70.0721C66.4462 76.7688 65.4295 81.9754 63.063 83.3603C62.5371 83.6758 61.8534 83.8161 61.0471 83.8161C57.4185 83.8161 52.0369 80.9235 46.3223 75.6468C48.7764 73.0698 51.2305 70.1422 53.562 66.8991C57.5236 66.4784 61.275 65.8297 64.7108 64.9707C65.1139 66.7413 65.4295 68.4418 65.6223 70.0721ZM72.3712 58.3793C70.8636 59.0279 69.2159 59.6064 67.5155 60.1498C66.5163 56.7139 65.2016 53.1376 63.5713 49.4737C65.1841 45.8274 66.4812 42.2687 67.4629 38.8502C69.1983 39.3937 70.8461 39.9897 72.3887 40.6384C78.5942 43.2855 82.6084 46.7565 82.6084 49.5088C82.5909 52.2611 78.5766 55.7497 72.3712 58.3793Z" fill="#61DAFB"/>
<path d="M43.4824 57.5205C47.9068 57.5205 51.4934 53.9336 51.4934 49.509C51.4934 45.0844 47.9068 41.4976 43.4824 41.4976C39.0581 41.4976 35.4714 45.0844 35.4714 49.509C35.4714 53.9336 39.0581 57.5205 43.4824 57.5205Z" fill="#61DAFB"/>
</g>
<defs>
<clipPath id="clip0_2938_308">
<rect width="86" height="98" fill="white" transform="translate(0.5 0.5)"/>
</clipPath>
</defs>
</svg>
