<svg width="93" height="95" viewBox="0 0 93 95" fill="none" xmlns="http://www.w3.org/2000/svg">
<g clip-path="url(#clip0_2929_1655)">
<path d="M46.9426 18C34.919 18 27.4046 24.1314 24.3991 36.3951C28.9081 30.2628 34.169 27.9634 40.1807 29.4969C43.6106 30.3706 46.0621 32.91 48.776 35.7188C53.1964 40.2949 58.3131 45.5918 69.4886 45.5918C81.5121 45.5918 89.0266 39.4604 92.0329 27.1967C87.5238 33.329 82.263 35.6284 76.2513 34.0949C72.8213 33.2212 70.3699 30.6818 67.656 27.873C63.2347 23.2969 58.1188 18 46.9426 18ZM24.3991 45.5918C12.3756 45.5918 4.8611 51.7232 1.8548 63.9869C6.36383 57.8546 11.6238 55.5552 17.6356 57.0887C21.0663 57.9642 23.5169 60.5017 26.2308 63.3106C30.6512 67.8867 35.7688 73.1836 46.9434 73.1836C58.9678 73.1836 66.4823 67.0522 69.4886 54.7885C64.9795 60.9208 59.7187 63.2202 53.707 61.6866C50.277 60.813 47.8256 58.2736 45.1117 55.4657C40.6913 50.8887 35.5745 45.5918 24.3991 45.5918Z" fill="#38BDF8"/>
<path d="M6.81581 87.3437H4.59022V91.5429C4.59022 92.6627 5.34389 92.6451 6.81581 92.575V94.2723C3.8363 94.6222 2.65153 93.8173 2.65153 91.5429V87.3437H1V85.5241H2.65153V83.174L4.58998 82.6142V85.5241H6.81581V87.3437ZM15.3006 85.5241H17.239V94.2725H15.3006V93.0129C14.6183 93.94 13.5594 94.5 12.1591 94.5C9.71817 94.5 7.6898 92.4879 7.6898 89.8985C7.6898 87.2916 9.71817 85.297 12.1593 85.297C13.5594 85.297 14.6185 85.8568 15.3006 86.7666V85.5241ZM12.4643 92.6979C14.0797 92.6979 15.3006 91.5255 15.3006 89.8985C15.3006 88.2716 14.0799 87.0991 12.4643 87.0991C10.8487 87.0991 9.62824 88.2713 9.62824 89.8985C9.62824 91.5257 10.8489 92.6979 12.4643 92.6979ZM20.47 84.2118C19.7877 84.2118 19.2315 83.6517 19.2315 83.0043C19.2321 82.6843 19.3628 82.3776 19.5949 82.1513C19.8271 81.9251 20.1417 81.7977 20.47 81.7971C20.7983 81.7977 21.113 81.9251 21.3451 82.1513C21.5772 82.3776 21.7079 82.6843 21.7085 83.0043C21.7085 83.6517 21.1521 84.2118 20.47 84.2118ZM19.5008 94.272V85.5241H21.4392V94.2725L19.5008 94.272ZM23.6829 94.272V81.5H25.6216V94.2723L23.6829 94.272ZM38.2044 85.5238H40.2506L37.4326 94.2725H35.5298L33.663 88.3761L31.7783 94.2725H29.8758L27.0576 85.5243H29.1038L30.845 91.5605L32.7297 85.5243H34.5785L36.4453 91.5605L38.2044 85.5238ZM42.656 84.2118C41.9737 84.2118 41.4175 83.6517 41.4175 83.0043C41.4181 82.6843 41.5488 82.3776 41.781 82.1513C42.0131 81.9251 42.3277 81.7977 42.656 81.7971C42.9843 81.7977 43.299 81.9251 43.5311 82.1513C43.7632 82.3776 43.8939 82.6843 43.8945 83.0043C43.8945 83.6517 43.3381 84.2118 42.656 84.2118ZM41.6868 94.272V85.5241H43.6252V94.2725L41.6868 94.272ZM50.5897 85.2963C52.6002 85.2963 54.0362 86.6263 54.0362 88.9007V94.272H52.0977V89.0934C52.0977 87.7637 51.3077 87.0638 50.087 87.0638C48.8128 87.0638 47.8076 87.7987 47.8076 89.5831V94.2725H45.8692V85.5241H47.8076V86.6439C48.4 85.7342 49.369 85.2963 50.5897 85.2963ZM63.2267 82.0248H65.1651V94.2725H63.2267V93.0129C62.5444 93.94 61.4854 94.5 60.0854 94.5C57.6442 94.5 55.6159 92.4879 55.6159 89.8985C55.6159 87.2916 57.6442 85.297 60.0854 85.297C61.4854 85.297 62.5446 85.8568 63.2267 86.7666V82.0248ZM60.3904 92.6979C62.0057 92.6979 63.2264 91.5255 63.2264 89.8985C63.2264 88.2716 62.0057 87.0991 60.3904 87.0991C58.775 87.0991 57.5543 88.2713 57.5543 89.8985C57.5543 91.5257 58.7748 92.6979 60.3904 92.6979ZM71.6627 94.5C68.9523 94.5 66.9242 92.4879 66.9242 89.8985C66.9242 87.2916 68.9523 85.297 71.6627 85.297C73.4218 85.297 74.9477 86.1891 75.6657 87.5538L73.9964 88.4986C73.6014 87.6765 72.7219 87.1515 71.6449 87.1515C70.0652 87.1515 68.8626 88.3237 68.8626 89.8985C68.8626 91.4733 70.0652 92.6453 71.6449 92.6453C72.7219 92.6453 73.6014 92.1029 74.0323 91.2982L75.7014 92.2253C74.9477 93.6077 73.4216 94.5 71.6627 94.5ZM78.8965 87.9388C78.8965 89.531 83.725 88.5686 83.725 91.8056C83.725 93.5553 82.1634 94.5 80.2249 94.5C78.4299 94.5 77.1374 93.7127 76.5631 92.4531L78.2325 91.5081C78.5196 92.2954 79.2376 92.7677 80.2249 92.7677C81.0864 92.7677 81.7506 92.4881 81.7506 91.788C81.7506 90.2308 76.9221 91.1058 76.9221 87.9738C76.9221 86.3292 78.3759 85.297 80.2068 85.297C81.6788 85.297 82.8994 85.9616 83.5275 87.1165L81.8943 88.0088C81.5712 87.3266 80.9429 87.0114 80.2068 87.0114C79.5069 87.0114 78.8965 87.309 78.8965 87.9388ZM87.1715 87.9388C87.1715 89.531 92 88.5686 92 91.8056C92 93.5553 90.4384 94.5 88.4997 94.5C86.7047 94.5 85.4124 93.7127 84.8379 92.4531L86.5073 91.5081C86.7944 92.2954 87.5126 92.7677 88.4997 92.7677C89.3614 92.7677 90.0254 92.4881 90.0254 91.788C90.0254 90.2308 85.1969 91.1058 85.1969 87.9738C85.1969 86.3292 86.6507 85.297 88.4819 85.297C89.9535 85.297 91.1742 85.9616 91.8025 87.1165L90.1691 88.0088C89.846 87.3266 89.2177 87.0114 88.4819 87.0114C87.7817 87.0114 87.1715 87.309 87.1715 87.9388Z" fill="#0F172A"/>
</g>
<defs>
<clipPath id="clip0_2929_1655">
<rect width="92" height="95" fill="white" transform="translate(0.850403)"/>
</clipPath>
</defs>
</svg>
